<svg xmlns="http://www.w3.org/2000/svg" viewBox="0 0 25 29.412">
  <defs>
    <style>
      .cls-1 {
        fill: #1c9cd6;
      }
    </style>
  </defs>
  <g id="Delete" transform="translate(-14 -8)">
    <path id="Path_19" data-name="Path 19" class="cls-1" d="M37.529,12.412h-6.25V10.574A2.558,2.558,0,0,0,28.706,8H24.294a2.558,2.558,0,0,0-2.574,2.574v1.838h-6.25A1.475,1.475,0,0,0,14,13.882v1.471H39V13.882A1.475,1.475,0,0,0,37.529,12.412Zm-13.6-1.838a.347.347,0,0,1,.368-.368h4.412a.347.347,0,0,1,.368.368v1.838H23.926Z" transform="translate(0)"/>
    <path id="Path_20" data-name="Path 20" class="cls-1" d="M20,51.118a1.475,1.475,0,0,0,1.471,1.471H39.118a1.475,1.475,0,0,0,1.471-1.471V32H20ZM35.074,34.206h2.206V50.382H35.074Zm-5.882,0H31.4V50.382H29.191Zm-5.882,0h2.206V50.382H23.309Z" transform="translate(-3.794 -15.176)"/>
  </g>
</svg>
