<svg xmlns="http://www.w3.org/2000/svg" viewBox="0 0 36.842 50">
  <defs>
    <style>
      .cls-1 {
        fill: #fff;
      }
    </style>
  </defs>
  <g id="dataset" transform="translate(-20 -10)">
    <ellipse id="Ellipse_7" data-name="Ellipse 7" class="cls-1" cx="18.421" cy="5.263" rx="18.421" ry="5.263" transform="translate(20 10)"/>
    <path id="Path_24" data-name="Path 24" class="cls-1" d="M51.579,32.526a1.316,1.316,0,1,1,1.316-1.316A1.243,1.243,0,0,1,51.579,32.526ZM38.421,27.263C28.289,27.263,20,24.895,20,22V32.526c0,2.895,8.289,5.263,18.421,5.263s18.421-2.368,18.421-5.263V22C56.842,24.895,48.553,27.263,38.421,27.263Z" transform="translate(0 -4.105)"/>
    <path id="Path_25" data-name="Path 25" class="cls-1" d="M51.579,52.526a1.316,1.316,0,1,1,1.316-1.316A1.243,1.243,0,0,1,51.579,52.526ZM38.421,47.263C28.289,47.263,20,44.895,20,42V52.526c0,2.895,8.289,5.263,18.421,5.263s18.421-2.368,18.421-5.263V42C56.842,44.895,48.553,47.263,38.421,47.263Z" transform="translate(0 -10.947)"/>
    <path id="Path_26" data-name="Path 26" class="cls-1" d="M51.579,72.526a1.316,1.316,0,1,1,1.316-1.316A1.243,1.243,0,0,1,51.579,72.526ZM38.421,67.263C28.289,67.263,20,64.895,20,62V72.526c0,2.895,8.289,5.263,18.421,5.263s18.421-2.368,18.421-5.263V62C56.842,64.895,48.553,67.263,38.421,67.263Z" transform="translate(0 -17.789)"/>
  </g>
</svg>
